<svg width="580" height="104" viewBox="190 188 580 104" fill="none" xmlns="http://www.w3.org/2000/svg">
<g clip-path="url(#clip0_534_1716)">
<path d="M762.239 196.162C763.171 196.162 763.688 195.644 763.688 194.92C763.688 194.091 763.067 193.677 762.135 193.677H760.272V196.162H762.239ZM758.408 191.917H762.239C763.171 191.814 764.206 192.228 764.931 192.849C765.449 193.367 765.656 193.988 765.656 194.713C765.759 195.955 764.931 196.99 763.792 197.405L765.863 200.511H763.688L761.825 197.612H760.375V200.511H758.512V191.917H758.408ZM769.072 196.473C769.072 192.435 765.759 189.122 761.721 189.122C757.683 189.122 754.37 192.435 754.37 196.473C754.37 200.511 757.683 203.824 761.721 203.824C765.759 203.824 769.072 200.511 769.072 196.473ZM753.438 196.473C753.438 191.917 757.166 188.19 761.721 188.19C766.277 188.19 770.004 191.917 770.004 196.473C770.004 201.028 766.277 204.756 761.721 204.756C757.062 204.756 753.438 201.132 753.438 196.473Z" fill="#8E8F92"/>
<path d="M190.1 188.19H207.597C211.842 188.19 215.776 190.364 218.054 193.988L241.453 235.402L264.852 193.988C267.13 190.364 271.064 188.19 275.309 188.19H292.806V290.897H270.339V225.877L248.183 262.735H234.516L212.567 225.877V290.897H190.1V188.19Z" fill="#575757"/>
<path d="M355.543 270.5C374.179 270.5 386.5 257.973 386.5 239.958V239.647C386.5 221.425 373.972 208.69 355.543 208.69H338.045V270.5H355.543ZM315.475 198.958C315.475 193.056 320.341 188.19 326.242 188.19H355.543C387.846 188.19 410.209 210.346 410.209 239.233V239.543C410.209 268.326 387.949 290.897 355.543 290.897H315.475V198.958Z" fill="#575757"/>
<path d="M427.705 188.19H439.508C445.41 188.19 450.276 192.953 450.276 198.958V270.397H490.758C496.659 270.397 501.526 275.159 501.526 281.165V291H427.809V188.19H427.705Z" fill="#F1641B"/>
<path d="M527.006 188.19H538.809V290.897H516.238V198.854C516.342 192.953 521.104 188.19 527.006 188.19Z" fill="#F1641B"/>
<path d="M553.812 188.192H570.275C575.348 188.089 580.007 191.298 581.767 196.061L605.684 260.46L629.497 196.165C631.257 191.402 635.916 188.192 640.989 188.192H656.83L615.312 291.728H595.33L553.812 188.192Z" fill="#F1641B"/>
<path d="M680.332 188.19H743.903V208.276H692.135V229.086H740.486V249.276H692.135V270.811H744.627V280.233C744.627 286.134 739.761 291 733.86 291H669.771V198.854C669.771 192.953 674.534 188.19 680.332 188.19Z" fill="#F1641B"/>
</g>
<defs>
<clipPath id="clip0_534_1716">
<rect width="579.9" height="103.535" fill="white" transform="translate(190.1 188.19)"/>
</clipPath>
</defs>
</svg>
