<svg version="1.0" xmlns="http://www.w3.org/2000/svg" viewBox="0 0 1200 867" preserveAspectRatio="xMidYMid meet">
<g transform="translate(0,867) scale(0.1,-0.1)" fill="currentColor" stroke="none">
<path d="M5760 8014 c-1080 -77 -2054 -604 -2704 -1464 -381 -503 -621 -1090 -712 -1740 -22 -157 -30 -628 -14 -802 81 -893 474 -1710 1119 -2330 582 -559 1305 -901 2126 -1005 196 -24 654 -24 850 0 821 104 1544 446 2126 1005 645 620 1038 1437 1119 2330 16 174 8 645 -14 802 -119 849 -492 1588 -1097 2174 -580 562 -1320 914 -2129 1011 -129 16 -550 27 -670 19z m455 -174 c493 -33 913 -146 1355 -366 352 -175 636 -380 916 -660 591 -593 948 -1366 1015 -2198 14 -184 7 -543 -15 -716 -137 -1056 -723 -1974 -1623 -2543 -145 -92 -447 -241 -617 -306 -800 -303 -1692 -303 -2492 0 -170 65 -472 214 -617 306 -819 518 -1389 1340 -1577 2273 -44 220 -61 373 -67 616 -6 253 6 447 43 669 167 991 744 1856 1601 2398 144 91 446 241 613 304 472 179 974 255 1465 223z"/>
<path d="M5735 7599 c-649 -53 -1275 -303 -1790 -715 -134 -107 -383 -355 -486 -484 -381 -477 -607 -992 -699 -1595 -28 -178 -38 -574 -21 -761 132 -1402 1113 -2546 2476 -2888 256 -64 486 -91 785 -91 305 0 530 27 800 95 1172 296 2092 1221 2380 2394 70 289 95 526 87 864 -5 253 -23 414 -68 617 -93 421 -281 846 -522 1185 -227 318 -518 605 -832 819 -615 420 -1370 621 -2110 560z m-230 -767 c6 -4 177 -349 380 -767 203 -418 423 -872 490 -1010 67 -137 238 -491 381 -785 l259 -534 3 1109 c4 1455 -3 1548 -120 1711 -58 81 -183 144 -286 144 l-33 0 3 68 3 67 500 0 500 0 3 -67 3 -67 -43 -11 c-119 -31 -189 -63 -230 -107 -36 -38 -83 -142 -105 -233 -16 -70 -18 -218 -23 -2355 l-5 -2280 -37 -3 -37 -3 -120 239 -120 240 -11 108 c-51 498 -212 891 -492 1199 -66 72 -227 226 -256 244 -8 5 -585 1157 -996 1991 l-71 145 -5 -696 -5 -697 -77 65 -78 65 0 809 0 809 -56 113 c-128 254 -191 321 -329 346 -32 6 -60 11 -62 11 -2 0 -3 32 -3 70 l0 70 533 0 c292 0 537 -4 542 -8z m-1250 -252 c-12 -19 -55 -179 -74 -272 -90 -441 -29 -839 181 -1196 189 -320 523 -631 1041 -967 575 -375 660 -437 842 -620 156 -156 242 -273 335 -458 150 -298 217 -603 225 -1026 2 -112 3 -202 1 -200 -2 2 -23 49 -46 104 -90 215 -185 369 -305 494 -100 104 -174 157 -306 220 -134 64 -244 96 -591 172 -487 106 -708 182 -948 327 -399 241 -648 592 -727 1025 -23 129 -23 389 1 522 20 110 75 290 106 345 16 28 19 30 15 10 -13 -64 -25 -215 -25 -315 0 -365 106 -656 318 -871 114 -116 230 -196 417 -289 207 -102 314 -141 667 -244 358 -104 488 -150 633 -220 222 -109 400 -262 525 -452 33 -50 60 -88 60 -85 0 4 -18 41 -39 84 -65 129 -154 254 -257 362 -154 160 -299 262 -699 490 -375 215 -551 332 -755 503 -523 438 -814 955 -860 1532 -23 293 37 621 161 867 41 81 95 168 105 168 3 0 2 -5 -1 -10z m787 -3891 c8 -279 38 -443 96 -539 25 -40 94 -110 135 -136 44 -29 135 -54 194 -54 l43 0 0 -65 0 -65 -540 0 -540 0 0 65 0 64 38 6 c141 22 191 42 258 107 107 104 154 323 154 724 l0 153 78 -28 77 -29 7 -203z"/>
</g>
</svg>